<?xml version="1.0" encoding="UTF-8"?>
<svg id="Capa_2" data-name="Capa 2" xmlns="http://www.w3.org/2000/svg" viewBox="0 0 982.81 982.81">
  <defs>
    <style>
      .cls-1 {
        fill: #f9f9f9;
      }
    </style>
  </defs>
  <g id="Capa_1-2" data-name="Capa 1">
    <g>
      <rect class="cls-1" width="982.81" height="982.81" rx="105.86" ry="105.86"/>
      <path d="M867.55,680.77h-124.32c-.25-4.02-.65-7.65-.65-11.27-.04-81.29-.04-162.56-.04-243.85,0-15.11-.23-15.4-14.96-15.38-31.78.04-63.56.15-95.32.21-13.82.02-14.09.23-14.09,13.8,0,80.9.04,161.81.06,242.71v12.11c-8.59,2.63-113.28,3.13-127.01.6v-181.46c-.63-.17-1.25-.33-1.88-.5-1.71,2.27-3.54,4.44-5.11,6.81-37.11,56.12-74.25,112.22-111.17,168.44-3.61,5.5-7.25,8.46-14.38,8.44-78.69-.27-157.37-.17-236.04-.21-2.21,0-4.42-.31-7.46-.54v-378.11h126.07v11.09c-.02,81.67-.04,163.33-.06,244.98v2.27c.15,11.09.6,11.67,11.42,11.71,18.15.06,36.32-.04,54.47-.04,14.75,0,29.51.06,44.26.02,12.92-.04,13.07-.15,13.09-13.52.04-52.55.02-105.11,0-157.64,0-29.11-.04-58.22,0-87.33,0-3.67.31-7.36.5-11.69h126.72v183.88c.71.17,1.42.33,2.13.48,1.75-2.25,3.63-4.38,5.21-6.73,37.51-56.31,75.04-112.57,112.38-168.98,4-6.02,7.88-9.69,16.11-9.63,76.79.44,153.58.33,230.37.42,2.98,0,5.94.31,9.75.54v378.43l-.06-.02Z"/>
    </g>
  </g>
</svg>
